<?xml version="1.0" encoding="utf-8"?>
<svg xmlns="http://www.w3.org/2000/svg" viewBox="141.5 182.434 1709.853 1650.634" width="2090.78px" height="2100px" xmlns:bx="https://boxy-svg.com" preserveAspectRatio="none">
  <defs>
    <linearGradient id="color-1" bx:pinned="true" gradientUnits="userSpaceOnUse">
      <title>Background</title>
      <stop style="stop-color: #d8d8d8;"/>
    </linearGradient>
    <linearGradient id="color-5" gradientUnits="userSpaceOnUse" bx:pinned="true" gradientTransform="matrix(0.844181, 0, 0, 1.392162, -1717.315901, -1770.999495)">
      <title>shadow</title>
      <stop style="stop-color: rgba(0, 0, 0, 0.457);"/>
    </linearGradient>
    <linearGradient id="color-10" gradientUnits="userSpaceOnUse" bx:pinned="true" gradientTransform="matrix(1, 0, 0, 1, -477.541988, -14.505)">
      <title>Rectangle Fill</title>
      <stop style="stop-color: rgb(94, 108, 145);"/>
    </linearGradient>
    <linearGradient id="color-0" bx:pinned="true" gradientUnits="userSpaceOnUse" gradientTransform="matrix(1, 0, 0, 1, -477.541988, -14.505)">
      <title>RectangleStroke</title>
      <stop style="stop-color: rgb(133, 120, 186);"/>
    </linearGradient>
    <linearGradient id="color-4" gradientUnits="userSpaceOnUse" bx:pinned="true" gradientTransform="matrix(1, 0, 0, 1, 53.495819, 67.500182)">
      <title>ArrowFill</title>
      <stop style="stop-color: oklch(0.6 0.333 50);"/>
    </linearGradient>
    <linearGradient id="color-8" gradientUnits="userSpaceOnUse" bx:pinned="true" gradientTransform="matrix(0.918793, 0, 0, 1.179899, -375.439755, -54.563133)">
      <title>ArrowStroke</title>
      <stop style="stop-color: rgb(0, 0, 0);"/>
    </linearGradient>
    <linearGradient id="color-3" gradientUnits="userSpaceOnUse" bx:pinned="true" gradientTransform="matrix(1, 0, 0, 1, -268.971006, -83.902198)">
      <title>JFill</title>
      <stop style="stop-color: oklab(0.815 -0.083 -0.041);"/>
    </linearGradient>
    <linearGradient id="color-2" gradientUnits="userSpaceOnUse" bx:pinned="true" gradientTransform="matrix(1, 0, 0, 1, -268.971006, -83.902198)">
      <title>JStroke</title>
      <stop style="stop-color: rgb(0, 0, 0);"/>
    </linearGradient>
    <linearGradient id="color-9" gradientUnits="userSpaceOnUse" bx:pinned="true">
      <title>RectStroke</title>
      <stop style="stop-color: rgb(0, 0, 0);"/>
    </linearGradient>
    <linearGradient id="color-6" gradientUnits="userSpaceOnUse" bx:pinned="true" gradientTransform="matrix(1, 0, 0, 1, -268.971006, -83.902198)">
      <title>CFill</title>
      <stop style="stop-color: oklab(0.814 -0.1 -0.265);"/>
    </linearGradient>
    <linearGradient id="color-7" gradientUnits="userSpaceOnUse" bx:pinned="true" gradientTransform="matrix(1, 0, 0, 1, -268.971006, -83.902198)">
      <title>CStroke</title>
      <stop style="stop-color: rgb(0, 0, 0);"/>
    </linearGradient>
    <bx:export>
      <bx:file format="png" path="cj-logo-color-f.png"/>
    </bx:export>
    <linearGradient id="color-11" bx:pinned="true" gradientUnits="userSpaceOnUse">
      <stop style="stop-color: lab(99.5 -92.1 -58.5);"/>
    </linearGradient>
    <linearGradient id="color-12" bx:pinned="true" gradientUnits="userSpaceOnUse">
      <stop style="stop-color: lab(74.2 78.8 8.76);"/>
    </linearGradient>
    <linearGradient id="gradient-1" bx:pinned="true">
      <title>gradient</title>
      <stop offset="0" style="stop-color: lab(97.3 6.38 -70.7);"/>
      <stop offset="0" style="stop-color: lab(35.3 -39.1 -74);"/>
      <stop offset="0.425" style="stop-color: rgb(255, 255, 255);"/>
      <stop offset="0.613" style="stop-color: rgb(255, 255, 255);"/>
      <stop offset="0.721" style="stop-color: lab(90.4 -46.7 -57.3);"/>
      <stop offset="0.787" style="stop-color: rgb(0, 90, 155);"/>
      <stop offset="0.832" style="stop-color: rgb(0, 119, 147);"/>
      <stop offset="0.89" style="stop-color: lab(53.9 -1.78 -69.2);"/>
      <stop offset="1" style="stop-color: rgb(27, 32, 76);"/>
    </linearGradient>
    <linearGradient id="gradient-0" bx:pinned="true">
      <title>red</title>
      <stop offset="0" style="stop-color: rgb(255, 0, 0);"/>
      <stop offset="0.078" style="stop-color: rgb(207, 0, 1);"/>
      <stop offset="0.145" style="stop-color: rgb(255, 0, 0);"/>
      <stop offset="0.197" style="stop-color: rgb(255, 184, 169);"/>
      <stop offset="0.215" style="stop-color: rgb(255, 204, 204);"/>
      <stop offset="0.244" style="stop-color: rgb(255, 36, 36);"/>
      <stop offset="0.275" style="stop-color: rgb(229, 27, 27);"/>
      <stop offset="0.361" style="stop-color: rgb(255, 132, 101);"/>
      <stop offset="0.387" style="stop-color: rgb(201, 17, 17);"/>
      <stop offset="0.491" style="stop-color: rgb(179, 0, 0);"/>
      <stop offset="0.533" style="stop-color: rgb(255, 127, 127);"/>
      <stop offset="0.566" style="stop-color: rgb(166, 0, 0);"/>
      <stop offset="0.626" style="stop-color: rgb(247, 35, 5);"/>
      <stop offset="0.683" style="stop-color: lch(91.9 150 42.5);"/>
      <stop offset="0.761" style="stop-color: rgb(199, 45, 0);"/>
      <stop offset="0.824" style="stop-color: rgb(255, 145, 145);"/>
      <stop offset="0.883" style="stop-color: rgb(178, 33, 6);"/>
      <stop offset="0.944" style="stop-color: rgb(243, 0, 0);"/>
      <stop offset="1" style="stop-color: rgb(76, 27, 27);"/>
    </linearGradient>
    <linearGradient id="gradient-4" bx:pinned="true">
      <stop offset="0" style="stop-color: lab(97.3 6.38 -70.7);"/>
      <stop offset="0" style="stop-color: lab(35.3 -39.1 -74);"/>
      <stop offset="0.447" style="stop-color: rgb(255, 255, 255);"/>
      <stop offset="0.518" style="stop-color: rgb(255, 255, 255);"/>
      <stop offset="0.62" style="stop-color: lab(90.4 -46.7 -57.3);"/>
      <stop offset="0.691" style="stop-color: rgb(0, 90, 155);"/>
      <stop offset="0.741" style="stop-color: rgb(0, 119, 147);"/>
      <stop offset="0.798" style="stop-color: lab(53.9 -1.78 -69.2);"/>
      <stop offset="0.99" style="stop-color: rgb(27, 32, 76);"/>
    </linearGradient>
    <linearGradient id="gradient-4-0" href="#gradient-4" gradientUnits="userSpaceOnUse" x1="657.827" y1="505.977" x2="657.827" y2="1388.244">
      <animate attributeName="y1" values="493;504;488;497;493" begin="0.02s" dur="7.97s" fill="freeze" keyTimes="0; 0.229738; 0.470242; 0.705835; 1" repeatCount="indefinite" calcMode="spline" keySplines="0.42 0 0.58 1; 0.42 0 0.58 1; 0.42 0 0.58 1; 0.42 0 0.58 1"/>
      <animate attributeName="y2" values="1551;1509;1535.84;1562;1551" begin="0.02s" dur="7.91s" fill="freeze" keyTimes="0; 0.227605; 0.471564; 0.709399; 1" repeatCount="indefinite" calcMode="spline" keySplines="0.42 0 0.58 1; 0.42 0 0.58 1; 0.42 0 0.58 1; 0.42 0 0.58 1"/>
    </linearGradient>
    <linearGradient id="gradient-4-1" href="#gradient-4" gradientUnits="userSpaceOnUse" x1="767.194" y1="430.579" x2="767.194" y2="1412.576">
      <animate attributeName="y1" values="662;669;662" begin="0s" dur="7.7s" fill="freeze" keyTimes="0; 0.478698; 1" calcMode="spline" keySplines="0.42 0 0.58 1; 0.42 0 0.58 1" repeatCount="indefinite"/>
      <animate attributeName="y2" values="1720;1657;1720" begin="0s" dur="7.69s" fill="freeze" keyTimes="0; 0.47844; 1" calcMode="spline" keySplines="0.42 0 0.58 1; 0.42 0 0.58 1" repeatCount="indefinite"/>
    </linearGradient>
    <linearGradient id="gradient-1-0" href="#gradient-1" gradientUnits="userSpaceOnUse" x1="785.339" y1="262.43" x2="785.339" y2="1849.83">
      <animate attributeName="y1" values="-786;191;-786" begin="0s" dur="7.89s" keyTimes="0; 0.49124; 1" calcMode="spline" keySplines="0.42 0 0.58 1; 0.42 0 0.58 1" repeatCount="indefinite"/>
      <animate attributeName="y2" values="1935;2014;1935" begin="0s" dur="7.89s" fill="freeze" keyTimes="0; 0.493; 1" calcMode="spline" keySplines="0.42 0 0.58 1; 0.42 0 0.58 1" repeatCount="indefinite"/>
    </linearGradient>
    <linearGradient id="gradient-0-0" href="#gradient-0" gradientUnits="userSpaceOnUse" x1="1253.572" y1="878.369" x2="1253.572" y2="1594.682"/>
  </defs>
  <g id="group-1" style="" transform="matrix(1, 0, 0, 1, 206.5705546391783, -68.39766626845245)">
    <title>Dark</title>
    <rect x="-206.57" y="68.398" width="2000" height="2000" style="stroke: rgb(0, 0, 0); transform-origin: -540.979px -167.317px; fill: url(&quot;#color-1&quot;); visibility: hidden;">
      <title>Background</title>
    </rect>
    <a>
      <path d="M 1458.4 286.959 L 1632.07 460.636 L 1632.07 1700.68 L 1458.4 1874.37 L 162.288 1874.37 L -11.389 1700.68 L -11.389 460.636 L 162.288 286.959 L 1458.4 286.959 Z M 123.612 516.554 L 123.612 1644.77 L 218.207 1739.36 L 1402.48 1739.36 L 1497.07 1644.77 L 1497.07 516.554 L 1402.48 421.959 L 218.207 421.959 L 123.612 516.554 Z" style="fill: url(&quot;#color-5&quot;); stroke: rgb(186, 218, 85);">
        <title>RectShadow</title>
      </path>
      <path d="M 1433.39 262.43 L 1607.07 436.107 L 1607.07 1676.15 L 1433.39 1849.83 L 137.286 1849.83 L -36.391 1676.15 L -36.391 436.107 L 137.286 262.43 L 1433.39 262.43 Z M 98.61 492.025 L 98.61 1620.23 L 193.205 1714.83 L 1377.47 1714.83 L 1472.07 1620.23 L 1472.07 492.025 L 1377.47 397.43 L 193.205 397.43 L 98.61 492.025 Z" style="stroke-width: 10px; stroke: url(&quot;#color-9&quot;); fill: url(&quot;#gradient-1-0&quot;);">
        <title>Rectangle</title>
      </path>
    </a>
    <a>
      <path d="M 1572.64 1305.17 L 1192.3 1663.42 L 1192.3 1516.63 L 1213.6 1486.18 C 1203.26 1486.18 1080.59 1486.18 1080.59 1486.18 L 1025.47 1408.01 L 1290.2 1408.01 L 1357.3 1349.51 L 1001.84 1349.51 L 1001.84 1253.51 L 1358.25 1253.51 L 1288.78 1200.01 L 1025.47 1200.01 L 1080.59 1122.96 L 1213.11 1122.96 L 1192.3 1094.95 L 1192.3 947.111 L 1572.64 1305.17 Z" style="stroke: black; filter: none; stroke-width: 0px; fill: url(&quot;#color-5&quot;);">
        <title>ArrowShadow</title>
      </path>
      <path d="M 1544.7 1293.86 L 1164.37 1652 L 1164.37 1505.32 L 1185.66 1474.79 C 1175.32 1474.79 1052.65 1474.79 1052.65 1474.79 L 997.52 1396.57 L 1262.27 1396.57 L 1329.37 1338.12 L 973.9 1338.12 L 973.9 1242.22 L 1330.31 1242.22 L 1260.85 1188.58 L 997.52 1188.58 L 1052.65 1111.55 L 1185.17 1111.55 L 1164.37 1083.54 L 1164.37 935.687 L 1544.7 1293.86 Z" style="filter: none; stroke: url(&quot;#color-8&quot;); stroke-width: 10px; fill: url(&quot;#gradient-0-0&quot;);">
        <title>Arrow</title>
      </path>
    </a>
    <a>
      <path d="M 969.679 686.603 L 1120.73 688.681 C 1120.73 688.681 1120.52 1212.44 1120.73 1405.09 C 1120.93 1587.24 1009.99 1668.6 876.759 1668.6 C 751.129 1668.6 537.55 1668.6 537.55 1668.6 L 538.87 1505.7 C 538.87 1505.7 785.419 1505.7 876.759 1505.7 C 910.309 1505.7 973.159 1510.15 969.679 1361.96 C 965.859 1199.46 969.679 686.603 969.679 686.603 Z" style="stroke: black; vector-effect: non-scaling-stroke; filter: none; stroke-width: 0px; fill: url(&quot;#color-5&quot;);" id="object-3">
        <title>JShadow</title>
      </path>
      <path d="M 931.269 651.732 L 1082.34 653.81 C 1082.34 653.81 1082.13 1177.57 1082.34 1370.22 C 1082.52 1552.37 971.599 1633.73 838.369 1633.73 C 712.733 1633.73 499.145 1633.73 499.145 1633.73 L 500.465 1470.83 C 500.465 1470.83 747.019 1470.83 838.369 1470.83 C 871.909 1470.83 934.749 1475.28 931.269 1327.09 C 927.449 1164.59 931.269 651.732 931.269 651.732 Z" style="filter: none; stroke: url(&quot;#color-2&quot;); stroke-width: 10px; fill: url(&quot;#gradient-4-1&quot;);" id="object-4">
        <title>J</title>
      </path>
    </a>
    <a>
      <path d="M 1120.73 689.107 C 1120.73 689.107 640.104 689.107 543.983 689.107 C 440.99 689.107 424.286 773.616 424.286 845.874 C 424.286 911.843 424.286 1020.04 424.286 1086.73 C 424.286 1188.59 424.286 1245.86 543.983 1245.86 C 632.704 1245.86 804.649 1248.39 874.099 1245.86 C 874.099 1331.56 874.099 1416.68 771.769 1416.68 C 647.044 1416.68 613.574 1415.72 543.983 1416.68 C 368.582 1419.09 262.707 1321.93 262.707 1103.82 C 262.707 997.798 262.707 941.288 262.707 845.874 C 262.707 673.127 368.582 534.451 543.983 534.451 C 631.384 534.451 1120.73 534.451 1120.73 534.451 L 1120.73 689.107 Z" style="vector-effect: non-scaling-stroke; stroke-width: 4; filter: none; fill: url(&quot;#color-5&quot;);" id="object-5">
        <title>CShadow</title>
      </path>
      <path d="M 1082.34 660.633 C 1082.34 660.633 610.714 660.633 514.591 660.633 C 411.598 660.633 394.894 745.139 394.894 817.398 C 394.894 883.376 394.894 991.568 394.894 1058.25 C 394.894 1160.12 394.894 1217.38 514.591 1217.38 C 603.314 1217.38 775.259 1219.91 844.709 1217.38 C 844.709 1303.09 844.709 1388.2 742.379 1388.2 C 617.651 1388.2 584.185 1387.24 514.591 1388.2 C 339.19 1390.62 233.315 1293.45 233.315 1075.35 C 233.315 969.328 233.315 912.823 233.315 817.398 C 233.315 644.653 339.19 505.977 514.591 505.977 C 601.99 505.977 1082.34 505.977 1082.34 505.977 L 1082.34 660.633 Z" style="filter: none; stroke: url(&quot;#color-7&quot;); stroke-width: 10px; fill: url(&quot;#gradient-4-0&quot;);" id="object-6">
        <title>C</title>
      </path>
    </a>
  </g>
</svg>